<?xml version="1.0" standalone="no"?>
<!DOCTYPE svg PUBLIC "-//W3C//DTD SVG 20010904//EN"
 "http://www.w3.org/TR/2001/REC-SVG-20010904/DTD/svg10.dtd">
<svg version="1.0" xmlns="http://www.w3.org/2000/svg"
 width="75.000000pt" height="75.000000pt" viewBox="0 0 75.000000 75.000000"
 preserveAspectRatio="xMidYMid meet">
<metadata>
Created by potrace 1.14, written by Peter Selinger 2001-2017
</metadata>
<g transform="translate(0.000000,75.000000) scale(0.100000,-0.100000)"
fill="#000000" stroke="none">
<path d="M190 611 l0 -40 -47 -3 -48 -3 0 -95 0 -95 93 -3 92 -3 0 -44 0 -45
-50 0 -50 0 0 -63 c0 -35 3 -98 6 -140 l7 -77 43 0 44 0 0 45 0 45 95 0 95 0
0 -45 0 -45 43 0 44 0 6 132 c3 73 3 136 1 140 -3 4 -25 8 -50 8 l-44 0 0 45
0 44 93 3 92 3 3 45 c2 25 1 87 -3 138 l-7 92 -44 0 -44 0 0 -45 0 -45 -45 0
-45 0 0 -44 0 -45 -47 -3 -48 -3 -3 -42 c-3 -42 -4 -43 -41 -43 l-38 0 -6 68
c-4 37 -7 97 -7 135 l0 67 -45 0 -45 0 0 -39z"/>
<path d="M380 610 l0 -40 43 0 43 0 -4 40 c-4 39 -5 40 -43 40 -39 0 -39 0
-39 -40z"/>
</g>
</svg>
